<svg xmlns="http://www.w3.org/2000/svg" viewBox="0 0 120 120">
  <defs>
    <linearGradient id="g" x1="0" y1="0" x2="1" y2="1">
      <stop offset="0" stop-color="#0ea5a5"/>
      <stop offset="1" stop-color="#0f766e"/>
    </linearGradient>
  </defs>
  <circle cx="60" cy="60" r="56" fill="url(#g)" opacity="0.14" stroke="#0ea5a5"/>
  <path d="M60 22c18 0 33 15 33 33s-15 33-33 33S27 73 27 55 42 22 60 22z" fill="url(#g)" opacity=".25"/>
  <path d="M60 34a4 4 0 0 0-4 4v16H40a4 4 0 1 0 0 8h16v16a4 4 0 1 0 8 0V62h16a4 4 0 0 0 0-8H64V38a4 4 0 0 0-4-4z" fill="#0f766e"/>
</svg>